<svg id="Ebene_1" data-name="Ebene 1" xmlns="http://www.w3.org/2000/svg" viewBox="0 0 24.65039 22.31207"><defs><style>.cls-1,.cls-2{fill:#297ec1;stroke:#297ec1;stroke-miterlimit:10;}.cls-1{stroke-width:2.5px;}</style></defs><path class="cls-1" d="M88.23926,58.45215a8.04592,8.04592,0,0,0-4.63721-4.63721,8.32275,8.32275,0,0,0-.84314-.2655V57.028a5.08885,5.08885,0,0,1,2.53064,2.82459,6.43421,6.43421,0,0,1,.42481,2.3623,6.536,6.536,0,0,1-.42481,2.375,5.4302,5.4302,0,0,1-3,3.125,5.78285,5.78285,0,0,1-2.30029.4502H75.56445a5.627,5.627,0,0,1-2.26269-.4502,5.41085,5.41085,0,0,1-1.78711-1.2373,5.65927,5.65927,0,0,1-1.17529-1.8877,6.52544,6.52544,0,0,1-.42481-2.375,6.40149,6.40149,0,0,1,.42481-2.375,5.57814,5.57814,0,0,1,1.17529-1.85009A5.29579,5.29579,0,0,1,72.87,57.01086V53.54767c-.27564.07843-.55427.15027-.81824.25458a8.33354,8.33354,0,0,0-2.79981,1.80029,8.096,8.096,0,0,0-1.85009,2.8125,9.70544,9.70544,0,0,0-.6626,3.6499,10.026,10.026,0,0,0,.6626,3.67481,8.655,8.655,0,0,0,4.6499,4.88769,8.59328,8.59328,0,0,0,3.51269.7124h4.42481a8.805,8.805,0,0,0,3.57519-.7124,8.6936,8.6936,0,0,0,2.8125-1.95019,8.8068,8.8068,0,0,0,1.8501-2.9375,10.03613,10.03613,0,0,0,.6626-3.67481A9.70739,9.70739,0,0,0,88.23926,58.45215Z" transform="translate(-65.48926 -50.27778)"/><rect class="cls-2" x="9.76964" y="0.5" width="5.11111" height="9.83333"/></svg>